#N canvas 404 101 486 199 10;
#X obj 55 50 tgl 15 0 key2 key2 s 5 -7 0 10 -33289 -262144 -1 0 1;
#X obj 43 72 tgl 15 0 key1 key1 z 5 20 0 10 -262144 -1 -1 0 1;
#N canvas 121 54 1206 750 keyboard-keys 0;
#X obj 212 45 key;
#X msg 212 88 1;
#X obj 267 45 keyup;
#X msg 267 87 0;
#X obj 231 173 sel 1 0;
#X obj 232 256 s notes;
#X obj 281 317 key;
#X msg 281 360 1;
#X obj 336 317 keyup;
#X msg 336 359 0;
#X obj 300 445 sel 1 0;
#X obj 301 528 s notes;
#X obj 402 316 key;
#X msg 402 359 1;
#X obj 457 316 keyup;
#X msg 457 358 0;
#X obj 421 444 sel 1 0;
#X obj 422 527 s notes;
#X obj 528 315 key;
#X msg 528 358 1;
#X obj 583 315 keyup;
#X msg 583 357 0;
#X obj 547 443 sel 1 0;
#X obj 548 526 s notes;
#X obj 653 315 key;
#X msg 653 358 1;
#X obj 708 315 keyup;
#X msg 708 357 0;
#X obj 672 443 sel 1 0;
#X obj 673 526 s notes;
#X obj 779 314 key;
#X msg 779 357 1;
#X obj 834 314 keyup;
#X msg 834 356 0;
#X obj 798 442 sel 1 0;
#X obj 799 525 s notes;
#X obj 902 314 key;
#X msg 902 357 1;
#X obj 957 314 keyup;
#X msg 957 356 0;
#X obj 921 442 sel 1 0;
#X obj 922 525 s notes;
#X obj 159 318 key;
#X msg 159 361 1;
#X obj 214 318 keyup;
#X msg 214 360 0;
#X obj 178 446 sel 1 0;
#X obj 185 524 s notes;
#X obj 345 44 key;
#X msg 345 87 1;
#X obj 400 44 keyup;
#X msg 400 86 0;
#X obj 364 172 sel 1 0;
#X obj 365 255 s notes;
#X obj 594 43 key;
#X msg 594 86 1;
#X obj 649 43 keyup;
#X msg 649 85 0;
#X obj 613 171 sel 1 0;
#X obj 614 254 s notes;
#X obj 717 43 key;
#X msg 717 86 1;
#X obj 772 43 keyup;
#X msg 772 85 0;
#X obj 736 171 sel 1 0;
#X obj 737 254 s notes;
#X obj 840 43 key;
#X msg 840 86 1;
#X obj 895 43 keyup;
#X msg 895 85 0;
#X obj 859 171 sel 1 0;
#X obj 860 254 s notes;
#X obj 171 928 key;
#X msg 171 971 1;
#X obj 226 928 keyup;
#X msg 226 970 0;
#X obj 191 1002 s key1;
#X obj 190 1034 r key1;
#X obj 190 1056 sel 1 0;
#X msg 175 1093 60 100;
#X msg 231 1093 60 0;
#X obj 191 1139 s notes;
#X obj 171 950 sel 122;
#X obj 226 950 sel 122;
#X text 170 897 z;
#X obj 297 927 key;
#X msg 297 970 1;
#X obj 352 927 keyup;
#X msg 352 969 0;
#X obj 316 1055 sel 1 0;
#X obj 317 1138 s notes;
#X text 296 896 x;
#X obj 297 949 sel 120;
#X obj 352 949 sel 120;
#X msg 301 1092 62 100;
#X msg 357 1092 62 0;
#X obj 418 926 key;
#X msg 418 969 1;
#X obj 473 926 keyup;
#X msg 473 968 0;
#X obj 437 1054 sel 1 0;
#X obj 438 1137 s notes;
#X obj 544 925 key;
#X msg 544 968 1;
#X obj 599 925 keyup;
#X msg 599 967 0;
#X obj 563 1053 sel 1 0;
#X obj 564 1136 s notes;
#X obj 669 925 key;
#X msg 669 968 1;
#X obj 724 925 keyup;
#X msg 724 967 0;
#X obj 688 1053 sel 1 0;
#X obj 689 1136 s notes;
#X obj 795 924 key;
#X msg 795 967 1;
#X obj 850 924 keyup;
#X msg 850 966 0;
#X obj 814 1052 sel 1 0;
#X obj 815 1135 s notes;
#X obj 918 924 key;
#X msg 918 967 1;
#X obj 973 924 keyup;
#X msg 973 966 0;
#X obj 937 1052 sel 1 0;
#X obj 938 1135 s notes;
#X obj 238 654 key;
#X msg 238 697 1;
#X obj 293 654 keyup;
#X msg 293 696 0;
#X obj 257 782 sel 1 0;
#X obj 258 865 s notes;
#X obj 361 654 key;
#X msg 361 697 1;
#X obj 416 654 keyup;
#X msg 416 696 0;
#X obj 380 782 sel 1 0;
#X obj 381 865 s notes;
#X obj 610 653 key;
#X msg 610 696 1;
#X obj 665 653 keyup;
#X msg 665 695 0;
#X obj 629 781 sel 1 0;
#X obj 630 864 s notes;
#X obj 733 653 key;
#X msg 733 696 1;
#X obj 788 653 keyup;
#X msg 788 695 0;
#X obj 752 781 sel 1 0;
#X obj 753 864 s notes;
#X obj 856 653 key;
#X msg 856 696 1;
#X obj 911 653 keyup;
#X msg 911 695 0;
#X obj 875 781 sel 1 0;
#X obj 876 864 s notes;
#X obj 158 341 sel 113;
#X obj 214 340 sel 113;
#X msg 163 482 72 100;
#X msg 219 483 72 0;
#X text 158 287 q;
#X text 211 14 2;
#X obj 212 67 sel 50;
#X obj 267 67 sel 50;
#X msg 216 210 73 100;
#X msg 272 210 73 0;
#X msg 285 483 74 100;
#X msg 341 482 74 0;
#X msg 350 209 75 100;
#X msg 405 209 75 0;
#X msg 406 481 76 100;
#X msg 462 481 76 0;
#X msg 532 480 77 100;
#X msg 588 480 77 0;
#X msg 598 208 78 100;
#X msg 654 208 78 0;
#X msg 657 480 79 100;
#X msg 713 480 79 0;
#X msg 721 208 80 100;
#X msg 777 209 80 0;
#X msg 783 479 81 100;
#X msg 839 479 81 0;
#X msg 844 208 82 100;
#X msg 900 209 82 0;
#X msg 906 479 83 100;
#X msg 962 479 83 0;
#X obj 281 339 sel 119;
#X obj 336 339 sel 119;
#X text 280 286 w;
#X text 344 13 3;
#X obj 345 66 sel 51;
#X obj 400 66 sel 51;
#X obj 402 338 sel 101;
#X obj 457 338 sel 101;
#X obj 528 337 sel 114;
#X obj 583 337 sel 114;
#X text 528 284 r;
#X text 401 285 e;
#X text 652 284 t;
#X text 778 283 y;
#X text 901 283 u;
#X text 839 12 7;
#X text 716 12 6;
#X text 593 12 5;
#X obj 653 337 sel 116;
#X obj 708 337 sel 116;
#X obj 594 65 sel 53;
#X obj 649 65 sel 53;
#X obj 717 65 sel 54;
#X obj 772 65 sel 54;
#X obj 779 336 sel 121;
#X obj 834 336 sel 121;
#X obj 840 65 sel 55;
#X obj 895 65 sel 55;
#X obj 902 336 sel 117;
#X obj 957 336 sel 117;
#X msg 422 1091 64 100;
#X msg 478 1091 64 0;
#X msg 548 1090 65 100;
#X msg 604 1090 65 0;
#X msg 673 1090 67 100;
#X msg 729 1090 67 0;
#X msg 799 1089 69 100;
#X msg 855 1089 69 0;
#X msg 922 1089 71 100;
#X msg 978 1089 71 0;
#X obj 418 948 sel 99;
#X obj 473 948 sel 99;
#X obj 544 947 sel 118;
#X obj 599 947 sel 118;
#X obj 669 947 sel 98;
#X obj 724 947 sel 98;
#X obj 795 946 sel 110;
#X obj 850 946 sel 110;
#X obj 918 946 sel 109;
#X obj 973 946 sel 109;
#X obj 911 675 sel 106;
#X obj 856 675 sel 106;
#X obj 788 675 sel 104;
#X obj 733 675 sel 104;
#X obj 665 675 sel 103;
#X obj 611 675 sel 103;
#X obj 238 676 sel 115;
#X obj 293 676 sel 115;
#X obj 361 675 sel 100;
#X obj 416 676 sel 100;
#X text 237 623 s;
#X text 360 623 d;
#X text 609 622 g;
#X text 732 622 h;
#X text 857 622 j;
#X text 417 895 c;
#X text 543 894 v;
#X text 668 894 b;
#X text 794 892 n;
#X text 917 893 m;
#X msg 242 819 61 100;
#X msg 298 819 61 0;
#X msg 365 819 63 100;
#X msg 421 819 63 0;
#X msg 614 818 66 100;
#X msg 670 818 66 0;
#X msg 737 818 68 100;
#X msg 794 818 68 0;
#X msg 860 818 70 100;
#X msg 916 818 70 0;
#X obj 258 728 s key2;
#X obj 257 760 r key2;
#X obj 317 1001 s key3;
#X obj 316 1033 r key3;
#X obj 382 728 s key4;
#X obj 380 760 r key4;
#X obj 438 1000 s key5;
#X obj 437 1032 r key5;
#X obj 564 999 s key6;
#X obj 563 1031 r key6;
#X obj 630 727 s key7;
#X obj 629 759 r key7;
#X obj 689 999 s key8;
#X obj 688 1031 r key8;
#X obj 753 727 s key9;
#X obj 752 759 r key9;
#X obj 815 998 s key10;
#X obj 814 1030 r key10;
#X obj 876 727 s key11;
#X obj 875 759 r key11;
#X obj 939 998 s key12;
#X obj 937 1030 r key12;
#X obj 178 424 r key13;
#X obj 179 392 s key13;
#X obj 232 119 s key14;
#X obj 231 151 r key14;
#X obj 301 391 s key15;
#X obj 300 423 r key15;
#X obj 365 118 s key16;
#X obj 364 149 r key16;
#X obj 423 390 s key17;
#X obj 421 422 r key17;
#X obj 550 389 s key18;
#X obj 547 421 r key18;
#X obj 614 116 s key19;
#X obj 613 149 r key19;
#X obj 673 389 s key20;
#X obj 672 421 r key20;
#X obj 737 117 s key21;
#X obj 736 144 r key21;
#X obj 800 388 s key22;
#X obj 798 420 r key22;
#X obj 860 117 s key23;
#X obj 859 148 r key23;
#X obj 922 388 s key24;
#X obj 921 417 r key24;
#X text -69 485 1;
#X obj -35 526 key;
#X obj 34 528 keyup;
#X obj -45 566 sel 49;
#X obj 36 569 sel 49;
#X obj -50 602 t b b;
#X msg -58 670 1;
#X obj -28 744 change;
#X msg -12 630 stop;
#X msg 23 703 0;
#X obj 28 671 delay 250;
#X obj -20 778 s aux;
#X obj 1023 314 key;
#X msg 1023 357 1;
#X obj 1078 314 keyup;
#X msg 1078 356 0;
#X obj 1042 442 sel 1 0;
#X obj 1043 525 s notes;
#X obj 1023 336 sel 105;
#X obj 1078 336 sel 105;
#X obj 1043 388 s key25;
#X obj 1042 417 r key25;
#X msg 1027 479 84 100;
#X msg 1083 479 84 0;
#X text 1022 283 i;
#X connect 0 0 162 0;
#X connect 1 0 290 0;
#X connect 2 0 163 0;
#X connect 3 0 290 0;
#X connect 4 0 164 0;
#X connect 4 1 165 0;
#X connect 6 0 186 0;
#X connect 7 0 292 0;
#X connect 8 0 187 0;
#X connect 9 0 292 0;
#X connect 10 0 166 0;
#X connect 10 1 167 0;
#X connect 12 0 192 0;
#X connect 13 0 296 0;
#X connect 14 0 193 0;
#X connect 15 0 296 0;
#X connect 16 0 170 0;
#X connect 16 1 171 0;
#X connect 18 0 194 0;
#X connect 19 0 298 0;
#X connect 20 0 195 0;
#X connect 21 0 298 0;
#X connect 22 0 172 0;
#X connect 22 1 173 0;
#X connect 24 0 204 0;
#X connect 25 0 302 0;
#X connect 26 0 205 0;
#X connect 27 0 302 0;
#X connect 28 0 176 0;
#X connect 28 1 177 0;
#X connect 30 0 210 0;
#X connect 31 0 306 0;
#X connect 32 0 211 0;
#X connect 33 0 306 0;
#X connect 34 0 180 0;
#X connect 34 1 181 0;
#X connect 36 0 214 0;
#X connect 37 0 310 0;
#X connect 38 0 215 0;
#X connect 39 0 310 0;
#X connect 40 0 184 0;
#X connect 40 1 185 0;
#X connect 42 0 156 0;
#X connect 43 0 289 0;
#X connect 44 0 157 0;
#X connect 45 0 289 0;
#X connect 46 0 158 0;
#X connect 46 1 159 0;
#X connect 48 0 190 0;
#X connect 49 0 294 0;
#X connect 50 0 191 0;
#X connect 51 0 294 0;
#X connect 52 0 168 0;
#X connect 52 1 169 0;
#X connect 54 0 206 0;
#X connect 55 0 300 0;
#X connect 56 0 207 0;
#X connect 57 0 300 0;
#X connect 58 0 174 0;
#X connect 58 1 175 0;
#X connect 60 0 208 0;
#X connect 61 0 304 0;
#X connect 62 0 209 0;
#X connect 63 0 304 0;
#X connect 64 0 178 0;
#X connect 64 1 179 0;
#X connect 66 0 212 0;
#X connect 67 0 308 0;
#X connect 68 0 213 0;
#X connect 69 0 308 0;
#X connect 70 0 182 0;
#X connect 70 1 183 0;
#X connect 72 0 82 0;
#X connect 73 0 76 0;
#X connect 74 0 83 0;
#X connect 75 0 76 0;
#X connect 77 0 78 0;
#X connect 78 0 79 0;
#X connect 78 1 80 0;
#X connect 79 0 81 0;
#X connect 80 0 81 0;
#X connect 82 0 73 0;
#X connect 83 0 75 0;
#X connect 85 0 92 0;
#X connect 86 0 268 0;
#X connect 87 0 93 0;
#X connect 88 0 268 0;
#X connect 89 0 94 0;
#X connect 89 1 95 0;
#X connect 92 0 86 0;
#X connect 93 0 88 0;
#X connect 94 0 90 0;
#X connect 95 0 90 0;
#X connect 96 0 226 0;
#X connect 97 0 272 0;
#X connect 98 0 227 0;
#X connect 99 0 272 0;
#X connect 100 0 216 0;
#X connect 100 1 217 0;
#X connect 102 0 228 0;
#X connect 103 0 274 0;
#X connect 104 0 229 0;
#X connect 105 0 274 0;
#X connect 106 0 218 0;
#X connect 106 1 219 0;
#X connect 108 0 230 0;
#X connect 109 0 278 0;
#X connect 110 0 231 0;
#X connect 111 0 278 0;
#X connect 112 0 220 0;
#X connect 112 1 221 0;
#X connect 114 0 232 0;
#X connect 115 0 282 0;
#X connect 116 0 233 0;
#X connect 117 0 282 0;
#X connect 118 0 222 0;
#X connect 118 1 223 0;
#X connect 120 0 234 0;
#X connect 121 0 286 0;
#X connect 122 0 235 0;
#X connect 123 0 286 0;
#X connect 124 0 224 0;
#X connect 124 1 225 0;
#X connect 126 0 242 0;
#X connect 127 0 266 0;
#X connect 128 0 243 0;
#X connect 129 0 266 0;
#X connect 130 0 256 0;
#X connect 130 1 257 0;
#X connect 132 0 244 0;
#X connect 133 0 270 0;
#X connect 134 0 245 0;
#X connect 135 0 270 0;
#X connect 136 0 258 0;
#X connect 136 1 259 0;
#X connect 138 0 241 0;
#X connect 139 0 276 0;
#X connect 140 0 240 0;
#X connect 141 0 276 0;
#X connect 142 0 260 0;
#X connect 142 1 261 0;
#X connect 144 0 239 0;
#X connect 145 0 280 0;
#X connect 146 0 238 0;
#X connect 147 0 280 0;
#X connect 148 0 262 0;
#X connect 148 1 263 0;
#X connect 150 0 237 0;
#X connect 151 0 284 0;
#X connect 152 0 236 0;
#X connect 153 0 284 0;
#X connect 154 0 264 0;
#X connect 154 1 265 0;
#X connect 156 0 43 0;
#X connect 157 0 45 0;
#X connect 158 0 47 0;
#X connect 159 0 47 0;
#X connect 162 0 1 0;
#X connect 163 0 3 0;
#X connect 164 0 5 0;
#X connect 165 0 5 0;
#X connect 166 0 11 0;
#X connect 167 0 11 0;
#X connect 168 0 53 0;
#X connect 169 0 53 0;
#X connect 170 0 17 0;
#X connect 171 0 17 0;
#X connect 172 0 23 0;
#X connect 173 0 23 0;
#X connect 174 0 59 0;
#X connect 175 0 59 0;
#X connect 176 0 29 0;
#X connect 177 0 29 0;
#X connect 178 0 65 0;
#X connect 179 0 65 0;
#X connect 180 0 35 0;
#X connect 181 0 35 0;
#X connect 182 0 71 0;
#X connect 183 0 71 0;
#X connect 184 0 41 0;
#X connect 185 0 41 0;
#X connect 186 0 7 0;
#X connect 187 0 9 0;
#X connect 190 0 49 0;
#X connect 191 0 51 0;
#X connect 192 0 13 0;
#X connect 193 0 15 0;
#X connect 194 0 19 0;
#X connect 195 0 21 0;
#X connect 204 0 25 0;
#X connect 205 0 27 0;
#X connect 206 0 55 0;
#X connect 207 0 57 0;
#X connect 208 0 61 0;
#X connect 209 0 63 0;
#X connect 210 0 31 0;
#X connect 211 0 33 0;
#X connect 212 0 67 0;
#X connect 213 0 69 0;
#X connect 214 0 37 0;
#X connect 215 0 39 0;
#X connect 216 0 101 0;
#X connect 217 0 101 0;
#X connect 218 0 107 0;
#X connect 219 0 107 0;
#X connect 220 0 113 0;
#X connect 221 0 113 0;
#X connect 222 0 119 0;
#X connect 223 0 119 0;
#X connect 224 0 125 0;
#X connect 225 0 125 0;
#X connect 226 0 97 0;
#X connect 227 0 99 0;
#X connect 228 0 103 0;
#X connect 229 0 105 0;
#X connect 230 0 109 0;
#X connect 231 0 111 0;
#X connect 232 0 115 0;
#X connect 233 0 117 0;
#X connect 234 0 121 0;
#X connect 235 0 123 0;
#X connect 236 0 153 0;
#X connect 237 0 151 0;
#X connect 238 0 147 0;
#X connect 239 0 145 0;
#X connect 240 0 141 0;
#X connect 241 0 139 0;
#X connect 242 0 127 0;
#X connect 243 0 129 0;
#X connect 244 0 133 0;
#X connect 245 0 135 0;
#X connect 256 0 131 0;
#X connect 257 0 131 0;
#X connect 258 0 137 0;
#X connect 259 0 137 0;
#X connect 260 0 143 0;
#X connect 261 0 143 0;
#X connect 262 0 149 0;
#X connect 263 0 149 0;
#X connect 264 0 155 0;
#X connect 265 0 155 0;
#X connect 267 0 130 0;
#X connect 269 0 89 0;
#X connect 271 0 136 0;
#X connect 273 0 100 0;
#X connect 275 0 106 0;
#X connect 277 0 142 0;
#X connect 279 0 112 0;
#X connect 281 0 148 0;
#X connect 283 0 118 0;
#X connect 285 0 154 0;
#X connect 287 0 124 0;
#X connect 288 0 46 0;
#X connect 291 0 4 0;
#X connect 293 0 10 0;
#X connect 295 0 52 0;
#X connect 297 0 16 0;
#X connect 299 0 22 0;
#X connect 301 0 58 0;
#X connect 303 0 28 0;
#X connect 305 0 64 0;
#X connect 307 0 34 0;
#X connect 309 0 70 0;
#X connect 311 0 40 0;
#X connect 313 0 315 0;
#X connect 314 0 316 0;
#X connect 315 0 317 0;
#X connect 316 0 322 0;
#X connect 317 0 318 0;
#X connect 317 1 320 0;
#X connect 318 0 319 0;
#X connect 319 0 323 0;
#X connect 320 0 322 0;
#X connect 321 0 319 0;
#X connect 322 0 321 0;
#X connect 324 0 330 0;
#X connect 325 0 332 0;
#X connect 326 0 331 0;
#X connect 327 0 332 0;
#X connect 328 0 334 0;
#X connect 328 1 335 0;
#X connect 330 0 325 0;
#X connect 331 0 327 0;
#X connect 333 0 328 0;
#X connect 334 0 329 0;
#X connect 335 0 329 0;
#X restore 543 57 pd keyboard-keys;
#X obj 68 72 tgl 15 0 key3 key3 x 5 20 0 10 -262144 -1 -1 0 1;
#X obj 94 72 tgl 15 0 key5 key5 c 5 20 0 10 -262144 -1 -1 0 1;
#X obj 120 72 tgl 15 0 key6 key6 v 5 20 0 10 -262144 -1 -1 0 1;
#X obj 146 72 tgl 15 0 key8 key8 b 5 20 0 10 -262144 -1 -1 0 1;
#X obj 172 72 tgl 15 0 key10 key10 n 5 20 0 10 -262144 -1 -1 0 1;
#X obj 226 72 tgl 15 0 key13 key13 q 5 20 0 10 -262144 -1 -1 0 1;
#X obj 252 72 tgl 15 0 key15 key15 w 5 20 0 10 -262144 -1 -1 0 1;
#X obj 278 72 tgl 15 0 key17 key17 e 5 20 0 10 -262144 -1 -1 0 1;
#X obj 304 72 tgl 15 0 key18 key18 r 5 20 0 10 -262144 -1 -1 0 1;
#X obj 330 72 tgl 15 0 key20 key20 t 5 20 0 10 -262144 -1 -1 0 1;
#X obj 356 72 tgl 15 0 key22 key22 y 5 20 0 10 -262144 -1 -1 0 1;
#X obj 382 72 tgl 15 0 key24 key24 u 5 20 0 10 -262144 -1 -1 0 1;
#X obj 81 50 tgl 15 0 key4 key4 d 5 -7 0 10 -33289 -262144 -1 0 1;
#X obj 133 50 tgl 15 0 key7 key7 g 5 -7 0 10 -33289 -262144 -1 0 1
;
#X obj 159 50 tgl 15 0 key9 key9 h 5 -7 0 10 -33289 -262144 -1 0 1
;
#X obj 185 50 tgl 15 0 key11 key11 j 5 -7 0 10 -33289 -262144 -1 0
1;
#X obj 239 49 tgl 15 0 key14 key14 2 5 -7 0 10 -33289 -262144 -1 0
1;
#X obj 199 72 tgl 15 0 key12 key12 m 5 20 0 10 -262144 -1 -1 0 1;
#X obj 265 49 tgl 15 0 key16 key16 3 5 -7 0 10 -33289 -262144 -1 0
1;
#X obj 317 49 tgl 15 0 key19 key19 5 5 -7 0 10 -33289 -262144 -1 0
1;
#X obj 344 49 tgl 15 0 key21 key21 6 5 -7 0 10 -33289 -262144 -1 0
1;
#X obj 369 49 tgl 15 0 key23 key23 7 5 -7 0 10 -33289 -262144 -1 0
1;
#X obj 407 72 tgl 15 0 key25 key25 i 5 20 0 10 -262144 -1 -1 0 1;
#N canvas 561 323 450 300 misc 0;
#X obj 138 48 key;
#X obj 145 119 nbx 5 14 -1e+37 1e+37 0 0 empty empty empty 0 -8 0 10
-262144 -1 -1 0 256;
#X connect 0 0 1 0;
#X restore 554 155 pd misc;
#X text 75 126 MIDI notes can be accessed using an object labelled
"r notes". They will arrive as a 2 part list \, the MIDI number followed
by a velocity (100 on key strike \, 0 on key release).;
