#N canvas 776 61 477 518 10;
#X obj 154 58 inlet;
#X obj 154 317 outlet~;
#X obj 155 109 unpack 0 0;
#X obj 155 144 mtof;
#X obj 158 269 *~;
#N canvas 458 345 450 300 vibrato 0;
#X obj 113 17 inlet;
#X obj 119 191 +~;
#X obj 115 260 outlet~;
#X obj 214 107 osc~;
#X obj 204 38 r vr;
#X obj 321 85 r vd;
#X obj 214 155 *~;
#X text 46 25 frequency;
#X text 54 254 Wiggling frequency;
#X connect 0 0 1 0;
#X connect 1 0 2 0;
#X connect 3 0 6 0;
#X connect 4 0 3 0;
#X connect 5 0 6 1;
#X connect 6 0 1 1;
#X restore 153 183 pd vibrato;
#X obj 285 272 / 127;
#X obj 292 232 sel 0;
#N canvas 696 410 566 441 adsr 0;
#X obj 24 47 inlet;
#X obj 44 403 outlet~;
#X obj 42 359 line~;
#X obj 24 89 sel 0;
#X obj 54 116 t b b b;
#X obj 40 255 0;
#X obj 80 262 pack 1 0;
#X obj 140 173 delay;
#X obj 143 136 + 1;
#X text 90 246 Attack;
#X obj 141 260 pack 0 0 0;
#X text 153 241 Decay;
#X obj 145 312 route 0;
#X obj -47 311 pack 0 0;
#X msg 24 138 stop;
#X obj 128 45 r a;
#X obj 200 44 r d;
#X obj 165 44 r s;
#X obj -5 251 r r;
#X connect 0 0 3 0;
#X connect 2 0 1 0;
#X connect 3 0 13 0;
#X connect 3 0 14 0;
#X connect 3 1 4 0;
#X connect 4 0 7 0;
#X connect 4 1 6 0;
#X connect 4 2 5 0;
#X connect 5 0 2 0;
#X connect 6 0 2 0;
#X connect 7 0 10 0;
#X connect 8 0 7 1;
#X connect 10 0 12 0;
#X connect 12 0 2 0;
#X connect 13 0 2 0;
#X connect 14 0 7 0;
#X connect 15 0 6 1;
#X connect 15 0 8 0;
#X connect 16 0 10 2;
#X connect 17 0 10 1;
#X connect 18 0 13 1;
#X restore 243 234 pd adsr;
#N canvas 125 45 1224 712 osc-phas 0;
#X obj 17 128 osc~;
#X obj 342 92 phasor~;
#X obj 341 158 -~ 0.5;
#X obj 17 298 *~;
#X obj 340 276 *~;
#X obj 181 461 outlet~;
#X obj 43 164 loadbang;
#X obj 70 229 1;
#X obj 181 436 *~ 1;
#X obj 357 190 loadbang;
#X obj 369 222 0;
#X floatatom 128 164 5 0 0 0 - - -;
#X floatatom 216 159 5 0 0 0 - - -;
#X obj 127 19 inlet~;
#X obj 130 82 r osc;
#X obj 199 78 r phas;
#X obj 130 214 expr $f1 / ($f1+$f2) \; $f2/($f1+$f2);
#X obj 163 124 t b b;
#X floatatom 135 286 5 0 0 0 - - -;
#X floatatom 247 288 5 0 0 0 - - -;
#X obj 505 62 *~ 2;
#X obj 595 61 *~ 3;
#X obj 699 60 *~ 4;
#X obj 814 59 *~ 5;
#X obj 929 55 *~ 6;
#X obj 1016 47 *~ 7;
#X obj 1107 39 *~ 8;
#X obj 1086 118 osc~;
#X obj 995 120 osc~;
#X obj 902 126 osc~;
#X obj 785 128 osc~;
#X obj 680 130 osc~;
#X obj 485 170 osc~;
#X obj 579 133 osc~;
#X obj 488 280 *~;
#X obj 651 386 *~;
#X obj 718 358 r ovrvol;
#X obj 526 161 phasor~;
#X obj 526 185 -~ 0.5;
#X obj 621 141 phasor~;
#X obj 621 165 -~ 0.5;
#X obj 727 133 phasor~;
#X obj 727 157 -~ 0.5;
#X obj 835 132 phasor~;
#X obj 835 156 -~ 0.5;
#X obj 942 123 phasor~;
#X obj 942 147 -~ 0.5;
#X obj 1030 121 phasor~;
#X obj 1030 145 -~ 0.5;
#X obj 1130 114 phasor~;
#X obj 1130 138 -~ 0.5;
#X obj 785 283 *~;
#X connect 0 0 3 0;
#X connect 1 0 2 0;
#X connect 2 0 4 0;
#X connect 3 0 8 0;
#X connect 4 0 8 0;
#X connect 6 0 7 0;
#X connect 7 0 3 1;
#X connect 8 0 5 0;
#X connect 9 0 10 0;
#X connect 10 0 4 1;
#X connect 11 0 16 0;
#X connect 12 0 16 1;
#X connect 13 0 0 0;
#X connect 13 0 1 0;
#X connect 13 0 20 0;
#X connect 13 0 21 0;
#X connect 13 0 22 0;
#X connect 13 0 23 0;
#X connect 13 0 24 0;
#X connect 13 0 25 0;
#X connect 13 0 26 0;
#X connect 14 0 11 0;
#X connect 14 0 17 0;
#X connect 15 0 12 0;
#X connect 15 0 17 0;
#X connect 16 0 3 1;
#X connect 16 0 18 0;
#X connect 16 0 34 1;
#X connect 16 1 4 1;
#X connect 16 1 19 0;
#X connect 16 1 51 1;
#X connect 17 0 11 0;
#X connect 17 1 12 0;
#X connect 20 0 32 0;
#X connect 20 0 37 0;
#X connect 21 0 33 0;
#X connect 21 0 39 0;
#X connect 22 0 31 0;
#X connect 22 0 41 0;
#X connect 23 0 30 0;
#X connect 23 0 43 0;
#X connect 24 0 29 0;
#X connect 24 0 45 0;
#X connect 25 0 28 0;
#X connect 25 0 47 0;
#X connect 26 0 27 0;
#X connect 26 0 49 0;
#X connect 27 0 34 0;
#X connect 28 0 34 0;
#X connect 29 0 34 0;
#X connect 30 0 34 0;
#X connect 31 0 34 0;
#X connect 32 0 34 0;
#X connect 33 0 34 0;
#X connect 34 0 35 0;
#X connect 35 0 8 0;
#X connect 36 0 35 1;
#X connect 37 0 38 0;
#X connect 38 0 51 0;
#X connect 39 0 40 0;
#X connect 40 0 51 0;
#X connect 41 0 42 0;
#X connect 42 0 51 0;
#X connect 43 0 44 0;
#X connect 44 0 51 0;
#X connect 45 0 46 0;
#X connect 46 0 51 0;
#X connect 47 0 48 0;
#X connect 48 0 51 0;
#X connect 49 0 50 0;
#X connect 50 0 51 0;
#X connect 51 0 35 0;
#X restore 152 223 pd osc-phas;
#X connect 0 0 2 0;
#X connect 2 0 3 0;
#X connect 2 1 7 0;
#X connect 2 1 8 0;
#X connect 3 0 5 0;
#X connect 4 0 1 0;
#X connect 5 0 9 0;
#X connect 6 0 4 1;
#X connect 7 1 6 0;
#X connect 8 0 4 1;
#X connect 9 0 4 0;
